<mxfile host="app.diagrams.net" modified="2023-11-01T16:34:12.314Z" agent="Mozilla/5.0 (Windows NT 10.0; Win64; x64) AppleWebKit/537.36 (KHTML, like Gecko) Chrome/118.0.0.0 Safari/537.36 Edg/118.0.2088.76" etag="1LpBzzGcBfBIzm8HRJlP" version="22.0.8" type="device">
  <diagram name="Página-1" id="GT2AcjhVZAx9yeQGj5Q4">
    <mxGraphModel dx="2112" dy="2155" grid="1" gridSize="10" guides="1" tooltips="1" connect="1" arrows="1" fold="1" page="1" pageScale="1" pageWidth="827" pageHeight="1169" math="0" shadow="0">
      <root>
        <mxCell id="0" />
        <mxCell id="1" parent="0" />
        <mxCell id="b_K8JGSQRQva_YjngBjA-47" style="edgeStyle=orthogonalEdgeStyle;rounded=0;orthogonalLoop=1;jettySize=auto;html=1;exitX=1;exitY=0.5;exitDx=0;exitDy=0;entryX=0;entryY=0.5;entryDx=0;entryDy=0;" edge="1" parent="1" source="b_K8JGSQRQva_YjngBjA-12" target="b_K8JGSQRQva_YjngBjA-43">
          <mxGeometry relative="1" as="geometry" />
        </mxCell>
        <mxCell id="b_K8JGSQRQva_YjngBjA-12" value="N nodos con parámetros reales" style="whiteSpace=wrap;strokeWidth=2;" vertex="1" parent="1">
          <mxGeometry x="-190" y="-73.75" width="120" height="62.5" as="geometry" />
        </mxCell>
        <mxCell id="b_K8JGSQRQva_YjngBjA-63" style="edgeStyle=orthogonalEdgeStyle;rounded=0;orthogonalLoop=1;jettySize=auto;html=1;exitX=1;exitY=0.5;exitDx=0;exitDy=0;entryX=0.5;entryY=1;entryDx=0;entryDy=0;" edge="1" parent="1" target="b_K8JGSQRQva_YjngBjA-38">
          <mxGeometry relative="1" as="geometry">
            <mxPoint x="180" y="125" as="sourcePoint" />
          </mxGeometry>
        </mxCell>
        <mxCell id="b_K8JGSQRQva_YjngBjA-31" value="Topologías aleatorias generadas" style="whiteSpace=wrap;strokeWidth=2;" vertex="1" parent="1">
          <mxGeometry x="65" y="90" width="130" height="70" as="geometry" />
        </mxCell>
        <mxCell id="b_K8JGSQRQva_YjngBjA-44" style="edgeStyle=orthogonalEdgeStyle;rounded=0;orthogonalLoop=1;jettySize=auto;html=1;exitX=0.458;exitY=0.968;exitDx=0;exitDy=0;entryX=0.5;entryY=1;entryDx=0;entryDy=0;exitPerimeter=0;" edge="1" parent="1" source="b_K8JGSQRQva_YjngBjA-50" target="b_K8JGSQRQva_YjngBjA-43">
          <mxGeometry relative="1" as="geometry">
            <mxPoint x="-370" y="-5" as="sourcePoint" />
            <Array as="points">
              <mxPoint x="-370" y="40" />
              <mxPoint x="55" y="40" />
            </Array>
          </mxGeometry>
        </mxCell>
        <mxCell id="b_K8JGSQRQva_YjngBjA-45" value="&lt;font style=&quot;font-size: 12px;&quot;&gt;Definición de escenarios&lt;/font&gt;" style="edgeLabel;html=1;align=center;verticalAlign=middle;resizable=0;points=[];" vertex="1" connectable="0" parent="b_K8JGSQRQva_YjngBjA-44">
          <mxGeometry x="-0.0469" y="-1" relative="1" as="geometry">
            <mxPoint as="offset" />
          </mxGeometry>
        </mxCell>
        <mxCell id="b_K8JGSQRQva_YjngBjA-34" value="" style="edgeStyle=orthogonalEdgeStyle;rounded=0;orthogonalLoop=1;jettySize=auto;html=1;" edge="1" parent="1" source="b_K8JGSQRQva_YjngBjA-33" target="b_K8JGSQRQva_YjngBjA-31">
          <mxGeometry relative="1" as="geometry" />
        </mxCell>
        <mxCell id="b_K8JGSQRQva_YjngBjA-37" value="&lt;font style=&quot;font-size: 12px;&quot;&gt;Ejecución&lt;/font&gt;" style="edgeLabel;html=1;align=center;verticalAlign=middle;resizable=0;points=[];" vertex="1" connectable="0" parent="b_K8JGSQRQva_YjngBjA-34">
          <mxGeometry x="-0.1294" y="2" relative="1" as="geometry">
            <mxPoint x="3" y="2" as="offset" />
          </mxGeometry>
        </mxCell>
        <mxCell id="b_K8JGSQRQva_YjngBjA-33" value="BRITE" style="rounded=1;whiteSpace=wrap;html=1;" vertex="1" parent="1">
          <mxGeometry x="-130" y="100" width="90" height="50" as="geometry" />
        </mxCell>
        <mxCell id="b_K8JGSQRQva_YjngBjA-73" style="edgeStyle=orthogonalEdgeStyle;rounded=0;orthogonalLoop=1;jettySize=auto;html=1;exitX=1;exitY=0.5;exitDx=0;exitDy=0;entryX=0;entryY=0.5;entryDx=0;entryDy=0;" edge="1" parent="1" source="b_K8JGSQRQva_YjngBjA-38" target="b_K8JGSQRQva_YjngBjA-71">
          <mxGeometry relative="1" as="geometry" />
        </mxCell>
        <mxCell id="b_K8JGSQRQva_YjngBjA-76" value="&lt;font style=&quot;font-size: 12px;&quot;&gt;Resultados&lt;/font&gt;" style="edgeLabel;html=1;align=center;verticalAlign=middle;resizable=0;points=[];" vertex="1" connectable="0" parent="b_K8JGSQRQva_YjngBjA-73">
          <mxGeometry x="0.0017" y="-1" relative="1" as="geometry">
            <mxPoint y="-1" as="offset" />
          </mxGeometry>
        </mxCell>
        <mxCell id="b_K8JGSQRQva_YjngBjA-38" value="Topologías aleatorias con parámetros reales" style="whiteSpace=wrap;strokeWidth=2;" vertex="1" parent="1">
          <mxGeometry x="185" y="-77.5" width="130" height="70" as="geometry" />
        </mxCell>
        <mxCell id="b_K8JGSQRQva_YjngBjA-58" style="edgeStyle=orthogonalEdgeStyle;rounded=0;orthogonalLoop=1;jettySize=auto;html=1;exitX=1;exitY=0.5;exitDx=0;exitDy=0;entryX=0;entryY=0.5;entryDx=0;entryDy=0;" edge="1" parent="1" source="b_K8JGSQRQva_YjngBjA-43" target="b_K8JGSQRQva_YjngBjA-38">
          <mxGeometry relative="1" as="geometry" />
        </mxCell>
        <mxCell id="b_K8JGSQRQva_YjngBjA-43" value="N nodos con parámetros reales en instante t" style="whiteSpace=wrap;strokeWidth=2;" vertex="1" parent="1">
          <mxGeometry y="-73.75" width="110" height="62.5" as="geometry" />
        </mxCell>
        <mxCell id="b_K8JGSQRQva_YjngBjA-69" style="edgeStyle=orthogonalEdgeStyle;rounded=0;orthogonalLoop=1;jettySize=auto;html=1;exitX=0.5;exitY=1;exitDx=0;exitDy=0;entryX=0.5;entryY=0;entryDx=0;entryDy=0;" edge="1" parent="1" source="b_K8JGSQRQva_YjngBjA-48" target="b_K8JGSQRQva_YjngBjA-50">
          <mxGeometry relative="1" as="geometry" />
        </mxCell>
        <mxCell id="b_K8JGSQRQva_YjngBjA-48" value="Datasets originales" style="rounded=1;whiteSpace=wrap;html=1;" vertex="1" parent="1">
          <mxGeometry x="-425" y="-200" width="120" height="60" as="geometry" />
        </mxCell>
        <mxCell id="b_K8JGSQRQva_YjngBjA-54" style="edgeStyle=orthogonalEdgeStyle;rounded=0;orthogonalLoop=1;jettySize=auto;html=1;exitX=1;exitY=0.5;exitDx=0;exitDy=0;entryX=0;entryY=0.5;entryDx=0;entryDy=0;" edge="1" parent="1" source="b_K8JGSQRQva_YjngBjA-50" target="b_K8JGSQRQva_YjngBjA-12">
          <mxGeometry relative="1" as="geometry" />
        </mxCell>
        <mxCell id="b_K8JGSQRQva_YjngBjA-55" value="&lt;font style=&quot;font-size: 12px;&quot;&gt;Selección&lt;/font&gt;" style="edgeLabel;html=1;align=center;verticalAlign=middle;resizable=0;points=[];" vertex="1" connectable="0" parent="b_K8JGSQRQva_YjngBjA-54">
          <mxGeometry x="0.0008" y="1" relative="1" as="geometry">
            <mxPoint x="-5" y="1" as="offset" />
          </mxGeometry>
        </mxCell>
        <mxCell id="b_K8JGSQRQva_YjngBjA-50" value="Datasets procesados" style="whiteSpace=wrap;strokeWidth=2;" vertex="1" parent="1">
          <mxGeometry x="-430" y="-75" width="130" height="65" as="geometry" />
        </mxCell>
        <mxCell id="b_K8JGSQRQva_YjngBjA-52" value="&lt;font style=&quot;font-size: 12px;&quot;&gt;Procesado&lt;/font&gt;" style="edgeLabel;html=1;align=center;verticalAlign=middle;resizable=0;points=[];" vertex="1" connectable="0" parent="1">
          <mxGeometry x="-370" y="-90" as="geometry">
            <mxPoint x="3" y="-22" as="offset" />
          </mxGeometry>
        </mxCell>
        <mxCell id="b_K8JGSQRQva_YjngBjA-64" value="Diagnóstico de calidad de path y predicción de errores" style="whiteSpace=wrap;strokeWidth=2;" vertex="1" parent="1">
          <mxGeometry x="430" y="70" width="170" height="70" as="geometry" />
        </mxCell>
        <mxCell id="b_K8JGSQRQva_YjngBjA-68" style="edgeStyle=orthogonalEdgeStyle;rounded=0;orthogonalLoop=1;jettySize=auto;html=1;exitX=0.5;exitY=1;exitDx=0;exitDy=0;" edge="1" parent="1" source="b_K8JGSQRQva_YjngBjA-67">
          <mxGeometry relative="1" as="geometry">
            <mxPoint x="250" y="-80" as="targetPoint" />
          </mxGeometry>
        </mxCell>
        <mxCell id="b_K8JGSQRQva_YjngBjA-70" value="&lt;font style=&quot;font-size: 12px;&quot;&gt;Aplicación de parámetros&lt;/font&gt;" style="edgeLabel;html=1;align=center;verticalAlign=middle;resizable=0;points=[];" vertex="1" connectable="0" parent="b_K8JGSQRQva_YjngBjA-68">
          <mxGeometry x="-0.0071" y="-2" relative="1" as="geometry">
            <mxPoint x="-2" y="-2" as="offset" />
          </mxGeometry>
        </mxCell>
        <mxCell id="b_K8JGSQRQva_YjngBjA-67" value="DEN2NE" style="rounded=1;whiteSpace=wrap;html=1;" vertex="1" parent="1">
          <mxGeometry x="205" y="-200" width="90" height="50" as="geometry" />
        </mxCell>
        <mxCell id="b_K8JGSQRQva_YjngBjA-74" style="edgeStyle=orthogonalEdgeStyle;rounded=0;orthogonalLoop=1;jettySize=auto;html=1;exitX=0.5;exitY=1;exitDx=0;exitDy=0;entryX=0.5;entryY=0;entryDx=0;entryDy=0;" edge="1" parent="1" source="b_K8JGSQRQva_YjngBjA-71" target="b_K8JGSQRQva_YjngBjA-64">
          <mxGeometry relative="1" as="geometry" />
        </mxCell>
        <mxCell id="b_K8JGSQRQva_YjngBjA-75" value="&lt;font style=&quot;font-size: 12px;&quot;&gt;Técnicas de ML&lt;/font&gt;" style="edgeLabel;html=1;align=center;verticalAlign=middle;resizable=0;points=[];" vertex="1" connectable="0" parent="b_K8JGSQRQva_YjngBjA-74">
          <mxGeometry x="-0.0971" y="5" relative="1" as="geometry">
            <mxPoint x="-5" as="offset" />
          </mxGeometry>
        </mxCell>
        <mxCell id="b_K8JGSQRQva_YjngBjA-71" value="Dataset de entrenamiento" style="whiteSpace=wrap;strokeWidth=2;" vertex="1" parent="1">
          <mxGeometry x="450" y="-77.5" width="130" height="70" as="geometry" />
        </mxCell>
      </root>
    </mxGraphModel>
  </diagram>
</mxfile>
